<svg xmlns="http://www.w3.org/2000/svg" xmlns:xlink="http://www.w3.org/1999/xlink" width="375" viewBox="0 0 375 187.5" height="187.5" version="1.0"><defs><clipPath id="a"><path d="M 102 35 L 153 35 L 153 95 L 102 95 Z M 102 35"/></clipPath><clipPath id="b"><path d="M 182.558594 123.59375 L 22.5 175.613281 L -7.09375 84.554688 L 152.964844 32.535156 Z M 182.558594 123.59375"/></clipPath><clipPath id="c"><path d="M 22.8125 175.511719 L 182.871094 123.492188 L 153.277344 32.433594 L -6.78125 84.453125 Z M 22.8125 175.511719"/></clipPath><clipPath id="d"><path d="M 127 60 L 134 60 L 134 68 L 127 68 Z M 127 60"/></clipPath><clipPath id="e"><path d="M 182.558594 123.59375 L 22.5 175.613281 L -7.09375 84.554688 L 152.964844 32.535156 Z M 182.558594 123.59375"/></clipPath><clipPath id="f"><path d="M 22.8125 175.511719 L 182.871094 123.492188 L 153.277344 32.433594 L -6.78125 84.453125 Z M 22.8125 175.511719"/></clipPath><clipPath id="g"><path d="M 129 34 L 155 34 L 155 96 L 129 96 Z M 129 34"/></clipPath><clipPath id="h"><path d="M 182.558594 123.59375 L 22.5 175.613281 L -7.09375 84.554688 L 152.964844 32.535156 Z M 182.558594 123.59375"/></clipPath><clipPath id="i"><path d="M 22.8125 175.511719 L 182.871094 123.492188 L 153.277344 32.433594 L -6.78125 84.453125 Z M 22.8125 175.511719"/></clipPath><clipPath id="j"><path d="M 148 35 L 155 35 L 155 97 L 148 97 Z M 148 35"/></clipPath><clipPath id="k"><path d="M 182.558594 123.59375 L 22.5 175.613281 L -7.09375 84.554688 L 152.964844 32.535156 Z M 182.558594 123.59375"/></clipPath><clipPath id="l"><path d="M 22.8125 175.511719 L 182.871094 123.492188 L 153.277344 32.433594 L -6.78125 84.453125 Z M 22.8125 175.511719"/></clipPath><clipPath id="m"><path d="M 122 64 L 133 64 L 133 73 L 122 73 Z M 122 64"/></clipPath><clipPath id="n"><path d="M 182.558594 123.59375 L 22.5 175.613281 L -7.09375 84.554688 L 152.964844 32.535156 Z M 182.558594 123.59375"/></clipPath><clipPath id="o"><path d="M 22.8125 175.511719 L 182.871094 123.492188 L 153.277344 32.433594 L -6.78125 84.453125 Z M 22.8125 175.511719"/></clipPath><clipPath id="p"><path d="M 122 36 L 155 36 L 155 67 L 122 67 Z M 122 36"/></clipPath><clipPath id="q"><path d="M 182.558594 123.59375 L 22.5 175.613281 L -7.09375 84.554688 L 152.964844 32.535156 Z M 182.558594 123.59375"/></clipPath><clipPath id="r"><path d="M 22.8125 175.511719 L 182.871094 123.492188 L 153.277344 32.433594 L -6.78125 84.453125 Z M 22.8125 175.511719"/></clipPath><clipPath id="s"><path d="M 95 33 L 154 33 L 154 67 L 95 67 Z M 95 33"/></clipPath><clipPath id="t"><path d="M 182.558594 123.59375 L 22.5 175.613281 L -7.09375 84.554688 L 152.964844 32.535156 Z M 182.558594 123.59375"/></clipPath><clipPath id="u"><path d="M 22.8125 175.511719 L 182.871094 123.492188 L 153.277344 32.433594 L -6.78125 84.453125 Z M 22.8125 175.511719"/></clipPath><clipPath id="v"><path d="M 119 64 L 134 64 L 134 80 L 119 80 Z M 119 64"/></clipPath><clipPath id="w"><path d="M 182.558594 123.59375 L 22.5 175.613281 L -7.09375 84.554688 L 152.964844 32.535156 Z M 182.558594 123.59375"/></clipPath><clipPath id="x"><path d="M 22.8125 175.511719 L 182.871094 123.492188 L 153.277344 32.433594 L -6.78125 84.453125 Z M 22.8125 175.511719"/></clipPath><clipPath id="y"><path d="M 19 164 L 27 164 L 27 175 L 19 175 Z M 19 164"/></clipPath><clipPath id="z"><path d="M 182.558594 123.59375 L 22.5 175.613281 L -7.09375 84.554688 L 152.964844 32.535156 Z M 182.558594 123.59375"/></clipPath><clipPath id="A"><path d="M 22.8125 175.511719 L 182.871094 123.492188 L 153.277344 32.433594 L -6.78125 84.453125 Z M 22.8125 175.511719"/></clipPath><clipPath id="B"><path d="M 18 150 L 24 150 L 24 163 L 18 163 Z M 18 150"/></clipPath><clipPath id="C"><path d="M 182.558594 123.59375 L 22.5 175.613281 L -7.09375 84.554688 L 152.964844 32.535156 Z M 182.558594 123.59375"/></clipPath><clipPath id="D"><path d="M 22.8125 175.511719 L 182.871094 123.492188 L 153.277344 32.433594 L -6.78125 84.453125 Z M 22.8125 175.511719"/></clipPath><clipPath id="E"><path d="M 19 135 L 29 135 L 29 148 L 19 148 Z M 19 135"/></clipPath><clipPath id="F"><path d="M 182.558594 123.59375 L 22.5 175.613281 L -7.09375 84.554688 L 152.964844 32.535156 Z M 182.558594 123.59375"/></clipPath><clipPath id="G"><path d="M 22.8125 175.511719 L 182.871094 123.492188 L 153.277344 32.433594 L -6.78125 84.453125 Z M 22.8125 175.511719"/></clipPath><clipPath id="H"><path d="M 68 121 L 83 121 L 83 128 L 68 128 Z M 68 121"/></clipPath><clipPath id="I"><path d="M 182.558594 123.59375 L 22.5 175.613281 L -7.09375 84.554688 L 152.964844 32.535156 Z M 182.558594 123.59375"/></clipPath><clipPath id="J"><path d="M 22.8125 175.511719 L 182.871094 123.492188 L 153.277344 32.433594 L -6.78125 84.453125 Z M 22.8125 175.511719"/></clipPath><clipPath id="K"><path d="M 83 115 L 97 115 L 97 125 L 83 125 Z M 83 115"/></clipPath><clipPath id="L"><path d="M 182.558594 123.59375 L 22.5 175.613281 L -7.09375 84.554688 L 152.964844 32.535156 Z M 182.558594 123.59375"/></clipPath><clipPath id="M"><path d="M 22.8125 175.511719 L 182.871094 123.492188 L 153.277344 32.433594 L -6.78125 84.453125 Z M 22.8125 175.511719"/></clipPath><clipPath id="N"><path d="M 96 106 L 109 106 L 109 118 L 96 118 Z M 96 106"/></clipPath><clipPath id="O"><path d="M 182.558594 123.59375 L 22.5 175.613281 L -7.09375 84.554688 L 152.964844 32.535156 Z M 182.558594 123.59375"/></clipPath><clipPath id="P"><path d="M 22.8125 175.511719 L 182.871094 123.492188 L 153.277344 32.433594 L -6.78125 84.453125 Z M 22.8125 175.511719"/></clipPath><clipPath id="Q"><path d="M 106 92 L 118 92 L 118 107 L 106 107 Z M 106 92"/></clipPath><clipPath id="R"><path d="M 182.558594 123.59375 L 22.5 175.613281 L -7.09375 84.554688 L 152.964844 32.535156 Z M 182.558594 123.59375"/></clipPath><clipPath id="S"><path d="M 22.8125 175.511719 L 182.871094 123.492188 L 153.277344 32.433594 L -6.78125 84.453125 Z M 22.8125 175.511719"/></clipPath><clipPath id="T"><path d="M 115 85 L 121 85 L 121 93 L 115 93 Z M 115 85"/></clipPath><clipPath id="U"><path d="M 182.558594 123.59375 L 22.5 175.613281 L -7.09375 84.554688 L 152.964844 32.535156 Z M 182.558594 123.59375"/></clipPath><clipPath id="V"><path d="M 22.8125 175.511719 L 182.871094 123.492188 L 153.277344 32.433594 L -6.78125 84.453125 Z M 22.8125 175.511719"/></clipPath><clipPath id="W"><path d="M 52 112 L 67 112 L 67 128 L 52 128 Z M 52 112"/></clipPath><clipPath id="X"><path d="M 182.558594 123.59375 L 22.5 175.613281 L -7.09375 84.554688 L 152.964844 32.535156 Z M 182.558594 123.59375"/></clipPath><clipPath id="Y"><path d="M 22.8125 175.511719 L 182.871094 123.492188 L 153.277344 32.433594 L -6.78125 84.453125 Z M 22.8125 175.511719"/></clipPath><clipPath id="Z"><path d="M 52 100 L 59 100 L 59 113 L 52 113 Z M 52 100"/></clipPath><clipPath id="aa"><path d="M 182.558594 123.59375 L 22.5 175.613281 L -7.09375 84.554688 L 152.964844 32.535156 Z M 182.558594 123.59375"/></clipPath><clipPath id="ab"><path d="M 22.8125 175.511719 L 182.871094 123.492188 L 153.277344 32.433594 L -6.78125 84.453125 Z M 22.8125 175.511719"/></clipPath><clipPath id="ac"><path d="M 57 91 L 68 91 L 68 102 L 57 102 Z M 57 91"/></clipPath><clipPath id="ad"><path d="M 182.558594 123.59375 L 22.5 175.613281 L -7.09375 84.554688 L 152.964844 32.535156 Z M 182.558594 123.59375"/></clipPath><clipPath id="ae"><path d="M 22.8125 175.511719 L 182.871094 123.492188 L 153.277344 32.433594 L -6.78125 84.453125 Z M 22.8125 175.511719"/></clipPath><clipPath id="af"><path d="M 69 90 L 81 90 L 81 100 L 69 100 Z M 69 90"/></clipPath><clipPath id="ag"><path d="M 182.558594 123.59375 L 22.5 175.613281 L -7.09375 84.554688 L 152.964844 32.535156 Z M 182.558594 123.59375"/></clipPath><clipPath id="ah"><path d="M 22.8125 175.511719 L 182.871094 123.492188 L 153.277344 32.433594 L -6.78125 84.453125 Z M 22.8125 175.511719"/></clipPath><clipPath id="ai"><path d="M 67 101 L 81 101 L 81 116 L 67 116 Z M 67 101"/></clipPath><clipPath id="aj"><path d="M 182.558594 123.59375 L 22.5 175.613281 L -7.09375 84.554688 L 152.964844 32.535156 Z M 182.558594 123.59375"/></clipPath><clipPath id="ak"><path d="M 22.8125 175.511719 L 182.871094 123.492188 L 153.277344 32.433594 L -6.78125 84.453125 Z M 22.8125 175.511719"/></clipPath><clipPath id="al"><path d="M 40 118 L 52 118 L 52 126 L 40 126 Z M 40 118"/></clipPath><clipPath id="am"><path d="M 182.558594 123.59375 L 22.5 175.613281 L -7.09375 84.554688 L 152.964844 32.535156 Z M 182.558594 123.59375"/></clipPath><clipPath id="an"><path d="M 22.8125 175.511719 L 182.871094 123.492188 L 153.277344 32.433594 L -6.78125 84.453125 Z M 22.8125 175.511719"/></clipPath><clipPath id="ao"><path d="M 26 123 L 41 123 L 41 135 L 26 135 Z M 26 123"/></clipPath><clipPath id="ap"><path d="M 182.558594 123.59375 L 22.5 175.613281 L -7.09375 84.554688 L 152.964844 32.535156 Z M 182.558594 123.59375"/></clipPath><clipPath id="aq"><path d="M 22.8125 175.511719 L 182.871094 123.492188 L 153.277344 32.433594 L -6.78125 84.453125 Z M 22.8125 175.511719"/></clipPath><clipPath id="ar"><path d="M 150 33 L 155 33 L 155 41 L 150 41 Z M 150 33"/></clipPath><clipPath id="as"><path d="M 182.558594 123.59375 L 22.5 175.613281 L -7.09375 84.554688 L 152.964844 32.535156 Z M 182.558594 123.59375"/></clipPath><clipPath id="at"><path d="M 22.8125 175.511719 L 182.871094 123.492188 L 153.277344 32.433594 L -6.78125 84.453125 Z M 22.8125 175.511719"/></clipPath><g id="au"><path d="M 25.332031 -39.488281 L 39.414062 -39.488281 L 39.414062 -49.359375 L 0.363281 -49.359375 L 0.363281 -39.488281 L 14.445312 -39.488281 L 14.445312 0 L 25.332031 0 Z M 25.332031 -39.488281"/></g><g id="av"><path d="M 15.242188 -17.640625 L 15.316406 -17.640625 L 27.074219 0 L 40.867188 0 L 26.710938 -18.148438 C 32.957031 -19.671875 37.964844 -25.1875 37.964844 -33.535156 C 37.964844 -42.898438 30.851562 -49.359375 22.867188 -49.359375 L 4.355469 -49.359375 L 4.355469 0 L 15.242188 0 Z M 21.050781 -40.796875 C 24.246094 -40.796875 27.582031 -38.035156 27.582031 -33.535156 C 27.582031 -28.816406 24.246094 -26.203125 21.050781 -26.203125 L 15.242188 -26.203125 L 15.242188 -40.796875 Z M 21.050781 -40.796875"/></g><g id="aw"><path d="M 49.652344 -49.359375 L 37.890625 -49.359375 L 27.65625 -21.632812 L 24.96875 -13.863281 L 22.285156 -21.632812 L 12.121094 -49.359375 L 0.363281 -49.359375 L 20.324219 0 L 29.6875 0 Z M 49.652344 -49.359375"/></g><g id="ax"><path d="M 32.957031 -9.871094 L 15.242188 -9.871094 L 15.242188 -19.816406 L 32.230469 -19.816406 L 32.230469 -29.6875 L 15.242188 -29.6875 L 15.242188 -39.488281 L 32.957031 -39.488281 L 32.957031 -49.359375 L 4.355469 -49.359375 L 4.355469 0 L 32.957031 0 Z M 32.957031 -9.871094"/></g><g id="ay"><path d="M 4.355469 0 L 32.957031 0 L 32.957031 -9.871094 L 15.242188 -9.871094 L 15.242188 -49.359375 L 4.355469 -49.359375 Z M 4.355469 0"/></g><g id="az"><path d="M 23.519531 -7.695312 C 18.148438 -7.695312 13.5 -10.378906 13.210938 -16.261719 L 2.175781 -16.261719 C 2.25 -4.210938 12.195312 1.160156 23.082031 1.160156 C 33.171875 1.160156 43.554688 -3.121094 43.554688 -14.734375 C 43.554688 -33.535156 15.027344 -27.222656 15.027344 -36.003906 C 15.027344 -39.707031 19.308594 -41.15625 22.359375 -41.15625 C 27.800781 -41.15625 30.777344 -39.488281 31.359375 -34.335938 L 41.882812 -34.335938 C 41.519531 -45.585938 32.375 -50.085938 22.210938 -50.085938 C 13.210938 -50.085938 3.773438 -45.296875 3.773438 -35.132812 C 3.773438 -16.914062 32.300781 -23.082031 32.300781 -13.5 C 32.300781 -9.074219 26.929688 -7.695312 23.519531 -7.695312 Z M 23.519531 -7.695312"/></g><g id="aA"><path d="M 18.800781 0 L 29.6875 0 L 29.6875 -23.589844 L 47.910156 -49.359375 L 34.914062 -49.359375 L 24.246094 -32.300781 L 13.574219 -49.359375 L 0.582031 -49.359375 L 18.800781 -23.589844 Z M 18.800781 0"/></g></defs><g clip-path="url(#a)"><g clip-path="url(#b)"><g clip-path="url(#c)"><path fill="#FFF" d="M 150.148438 94.878906 C 149.375 95.128906 148.277344 94.867188 147.910156 93.976562 C 147.542969 93.089844 147.058594 92.082031 146.578125 91.074219 C 146.140625 90.210938 145.632812 89.367188 144.914062 88.359375 C 143.921875 86.976562 142.855469 85.617188 141.953125 84.511719 C 141.792969 84.253906 141.582031 84.089844 141.421875 83.832031 C 141.027344 83.339844 140.632812 82.847656 140.171875 82.378906 C 138.6875 80.6875 137.132812 79.023438 135.652344 77.332031 C 135.046875 76.675781 134.515625 75.996094 134.007812 75.386719 L 133.773438 75.152344 C 133.125 74.355469 132.457031 73.488281 131.902344 72.738281 C 131.601562 72.292969 131.230469 71.867188 130.90625 71.351562 C 130.460938 71.652344 130.011719 71.953125 129.613281 72.160156 C 129.164062 72.460938 128.695312 72.691406 128.320312 72.96875 C 127.660156 73.339844 127.003906 73.707031 126.4375 74.125 C 125.988281 74.425781 125.660156 74.609375 125.308594 74.722656 C 125.238281 74.746094 125.167969 74.769531 125.097656 74.792969 C 124.183594 75.089844 123.296875 74.757812 122.859375 73.890625 C 122.535156 73.375 122.445312 72.863281 122.449219 72.394531 C 122.433594 71.859375 122.578125 71.347656 122.746094 70.902344 C 123.03125 70.113281 123.296875 69.25 123.679688 68.273438 C 123.941406 67.644531 124.15625 67.109375 124.421875 66.480469 L 124.515625 66.296875 C 125.015625 65.203125 125.351562 64.320312 125.710938 63.503906 C 125.214844 63.664062 124.769531 63.730469 124.257812 63.820312 C 123.367188 63.957031 122.453125 64.019531 121.515625 64.015625 C 120.675781 64.054688 119.878906 64.003906 119.085938 63.953125 L 118.921875 63.925781 L 117.421875 63.871094 C 116.558594 63.839844 115.691406 63.8125 114.828125 63.785156 L 110.96875 63.640625 C 109.632812 63.609375 108.324219 63.648438 107.316406 63.664062 L 106.171875 63.726562 C 105.5625 63.769531 105.023438 63.789062 104.414062 63.832031 C 103.949219 63.832031 103.457031 63.523438 103.132812 63.242188 C 102.878906 62.9375 102.671875 62.539062 102.699219 62.140625 C 102.582031 62.023438 102.464844 61.90625 102.398438 61.695312 C 102.167969 61.230469 102.148438 60.691406 102.316406 60.25 C 102.460938 59.738281 102.839844 59.460938 103.214844 59.183594 C 104.816406 58.121094 106.578125 57.082031 108.34375 56.042969 C 109.1875 55.535156 110.105469 55.003906 110.953125 54.496094 L 111.660156 54.035156 C 112.175781 53.710938 112.765625 53.363281 113.28125 53.042969 L 113.679688 52.835938 C 114.480469 52.417969 115.277344 52.003906 115.984375 51.542969 C 116.574219 51.195312 117.253906 50.898438 117.863281 50.621094 C 118.195312 50.4375 118.546875 50.324219 118.875 50.136719 C 119.554688 49.839844 120.167969 49.5625 120.847656 49.265625 C 121.199219 49.148438 121.457031 48.988281 121.808594 48.875 C 122.5625 48.550781 123.3125 48.230469 124.136719 47.886719 C 128.105469 46.207031 131.648438 44.667969 135.128906 42.917969 C 137.125 41.878906 139.214844 40.890625 141.214844 39.855469 C 141.613281 39.644531 142.082031 39.417969 142.484375 39.207031 C 143.609375 38.609375 144.808594 37.988281 145.960938 37.457031 C 147.253906 36.882812 148.519531 36.238281 149.835938 35.734375 C 149.90625 35.710938 149.976562 35.6875 150.046875 35.664062 C 150.960938 35.367188 151.941406 35.746094 152.355469 36.542969 C 152.585938 37.011719 152.605469 37.546875 152.460938 38.058594 C 152.292969 38.503906 151.9375 38.851562 151.539062 39.058594 C 151.070312 39.289062 150.574219 39.449219 150.105469 39.679688 C 150.46875 40.800781 150.71875 42.039062 150.917969 43.136719 C 151.074219 43.859375 151.070312 44.558594 151.132812 45.238281 L 151.15625 45.308594 C 151.222656 45.984375 151.308594 46.730469 151.304688 47.429688 C 151.292969 48.597656 151.28125 49.765625 151.320312 50.835938 C 151.316406 51.539062 151.308594 52.238281 151.210938 52.890625 C 151.160156 53.214844 151.179688 53.519531 151.109375 53.777344 C 151.03125 54.730469 150.976562 55.523438 150.921875 56.316406 C 150.84375 57.507812 150.691406 58.71875 150.539062 59.929688 L 150.523438 61.796875 C 150.488281 63.128906 150.523438 64.433594 150.539062 65.671875 C 150.578125 66.277344 150.550781 66.90625 150.59375 67.515625 C 150.613281 68.050781 150.652344 68.65625 150.671875 69.195312 C 150.667969 69.429688 150.691406 69.730469 150.6875 69.964844 C 150.707031 70.5 150.75 71.109375 150.769531 71.644531 L 150.808594 72.484375 L 151 74.515625 L 151.195312 76.546875 C 151.238281 76.921875 151.28125 77.292969 151.324219 77.667969 L 151.390625 78.113281 C 151.476562 79.09375 151.632812 80.050781 151.714844 81.03125 C 151.757812 81.636719 151.730469 82.035156 151.472656 82.429688 C 151.328125 82.707031 151.070312 82.867188 150.738281 83.054688 C 150.851562 83.636719 150.894531 84.246094 150.933594 84.851562 C 150.996094 85.761719 150.964844 86.625 150.910156 87.652344 L 151.117188 88.046875 L 151.578125 88.984375 L 151.992188 89.78125 C 152.40625 90.578125 152.164062 91.507812 151.480469 92.039062 C 151.734375 92.578125 151.730469 93.046875 151.5625 93.488281 C 151.394531 93.929688 151.0625 94.347656 150.664062 94.554688 C 150.289062 94.832031 150.21875 94.855469 150.148438 94.878906 Z M 128.460938 67.417969 C 128.410156 67.746094 128.359375 68.070312 128.3125 68.398438 L 128.285156 68.558594 L 128.261719 68.722656 L 128.917969 68.355469 L 128.550781 67.699219 C 128.503906 67.558594 128.484375 67.488281 128.460938 67.417969 Z M 129.792969 62.175781 C 129.8125 62.480469 129.832031 62.785156 129.691406 63.0625 C 129.570312 63.414062 129.449219 63.761719 129.332031 64.109375 C 129.613281 64.019531 129.9375 64.066406 130.289062 64.1875 C 130.730469 64.351562 131.058594 64.636719 131.359375 65.082031 C 131.542969 65.410156 131.703125 65.664062 131.886719 65.992188 C 131.171875 64.753906 130.457031 63.511719 129.792969 62.175781 Z M 129.792969 62.175781"/></g></g></g><g clip-path="url(#d)"><g clip-path="url(#e)"><g clip-path="url(#f)"><path fill="#FFF" d="M 131.121094 67.949219 C 130.726562 67.921875 130.117188 67.730469 129.910156 67.335938 C 129.378906 66.652344 128.894531 65.882812 128.503906 65.15625 C 128.109375 64.429688 127.695312 63.632812 127.234375 62.929688 C 126.726562 62.085938 127.207031 60.925781 128.074219 60.488281 C 129.015625 60.027344 130.085938 60.453125 130.59375 61.296875 C 131.148438 62.28125 131.699219 63.261719 132.253906 64.246094 C 132.414062 64.503906 132.554688 64.691406 132.714844 64.949219 C 133.015625 65.394531 133.222656 65.792969 133.148438 66.28125 C 133.144531 66.75 132.90625 67.214844 132.554688 67.5625 C 132.363281 67.699219 132.105469 67.863281 131.894531 67.929688 C 131.636719 67.859375 131.355469 67.949219 131.121094 67.949219 Z M 132.113281 64.058594 C 132.09375 63.988281 131.976562 63.871094 131.953125 63.800781 C 131.976562 63.871094 132.070312 63.917969 132.113281 64.058594 Z M 132.113281 64.058594"/></g></g></g><g clip-path="url(#g)"><g clip-path="url(#h)"><g clip-path="url(#i)"><path fill="#FF6767" d="M 150.042969 95.996094 C 149.578125 95.996094 149.039062 95.78125 148.761719 95.40625 C 146.054688 91.867188 143.300781 88.417969 140.546875 84.972656 C 138.140625 81.875 135.589844 78.824219 133.089844 75.683594 C 132.445312 74.886719 131.816406 74.160156 131.238281 73.339844 C 130.960938 72.964844 130.613281 72.613281 130.335938 72.238281 C 130.105469 72 129.945312 71.742188 129.78125 71.484375 C 129.757812 71.417969 129.714844 71.277344 129.691406 71.207031 C 129.621094 70.996094 129.460938 70.738281 129.460938 70.503906 C 129.371094 70.222656 129.375 69.757812 129.425781 69.429688 C 129.429688 68.964844 129.597656 68.523438 129.695312 68.101562 C 130.363281 66.332031 131.335938 64.777344 132.308594 63.21875 C 133.019531 62.058594 133.734375 60.894531 134.445312 59.734375 C 136.582031 56.25 138.714844 52.761719 140.945312 49.324219 C 142.390625 47.070312 143.910156 44.792969 145.355469 42.539062 C 146.183594 41.261719 147.109375 40.03125 147.960938 38.824219 C 148.386719 38.21875 148.90625 37.664062 149.332031 37.058594 C 149.898438 36.410156 150.375 35.714844 150.941406 35.0625 C 151.222656 34.738281 151.789062 34.554688 152.253906 34.558594 C 152.722656 34.5625 153.1875 34.796875 153.539062 35.152344 C 153.886719 35.503906 154.042969 35.992188 154.039062 36.460938 C 154.058594 36.996094 153.796875 37.390625 153.445312 37.738281 C 152.996094 38.273438 152.570312 38.878906 152.050781 39.433594 C 152.050781 39.433594 152.050781 39.433594 152.121094 39.410156 C 149.542969 42.730469 147.335938 46.238281 145.035156 49.699219 C 143.898438 51.464844 142.832031 53.210938 141.691406 54.976562 C 140.625 56.71875 139.554688 58.460938 138.488281 60.203125 C 137.824219 61.273438 137.160156 62.339844 136.496094 63.410156 C 135.308594 65.269531 134.125 67.128906 133.148438 69.152344 C 133.050781 69.335938 133.027344 69.5 132.957031 69.757812 C 133.558594 70.414062 134.113281 71.164062 134.644531 71.84375 C 135.316406 72.710938 136.058594 73.554688 136.730469 74.425781 C 137.910156 75.902344 139.089844 77.378906 140.246094 78.785156 C 142.839844 81.976562 145.386719 85.257812 147.910156 88.472656 C 149.066406 89.878906 150.15625 91.308594 151.242188 92.738281 C 151.542969 93.183594 151.796875 93.488281 151.746094 94.046875 C 151.742188 94.515625 151.503906 94.980469 151.148438 95.328125 C 150.984375 95.535156 150.726562 95.699219 150.445312 95.789062 C 150.417969 95.953125 150.277344 96 150.042969 95.996094 Z M 133.023438 70.199219 C 133 70.128906 132.976562 70.058594 133.023438 69.96875 C 132.976562 70.058594 133 70.128906 133.023438 70.199219 Z M 133.117188 70.015625 C 133.023438 69.96875 133.023438 69.96875 133.117188 70.015625 C 133.023438 69.96875 133.023438 69.96875 133.117188 70.015625 Z M 132.957031 69.757812 C 132.957031 69.757812 132.933594 69.6875 133.003906 69.664062 C 133.003906 69.664062 132.933594 69.6875 132.957031 69.757812 Z M 132.863281 69.710938 C 132.839844 69.640625 132.816406 69.570312 132.816406 69.570312 C 132.816406 69.570312 132.839844 69.640625 132.863281 69.710938 Z M 132.863281 69.710938"/></g></g></g><g clip-path="url(#j)"><g clip-path="url(#k)"><g clip-path="url(#l)"><path fill="#FF6767" d="M 150.832031 96.980469 C 149.824219 97 148.992188 96.105469 148.976562 95.105469 C 149.09375 86.84375 149.117188 78.539062 149.234375 70.28125 C 149.246094 66.246094 149.328125 62.1875 149.410156 58.128906 C 149.46875 54 149.667969 49.824219 149.9375 45.625 C 150.101562 43.015625 150.476562 40.332031 150.542969 37.675781 C 150.601562 36.648438 151.425781 35.835938 152.433594 35.820312 C 153.4375 35.804688 154.273438 36.695312 154.289062 37.699219 C 154.222656 39.65625 153.972656 41.523438 153.816406 43.433594 C 153.683594 45.417969 153.550781 47.398438 153.414062 49.382812 C 153.195312 53.253906 153.136719 57.148438 153.105469 61.113281 C 153.007812 69.441406 152.9375 77.839844 152.84375 86.171875 C 152.792969 89.132812 152.769531 92.164062 152.71875 95.128906 C 152.734375 95.898438 152.191406 96.617188 151.417969 96.871094 C 151.207031 96.9375 150.972656 96.9375 150.832031 96.980469 Z M 150.832031 96.980469"/></g></g></g><g clip-path="url(#m)"><g clip-path="url(#n)"><g clip-path="url(#o)"><path fill="#FF6767" d="M 131.4375 72.265625 C 131.015625 72.402344 130.453125 72.355469 130.035156 72.023438 C 127.964844 70.449219 125.847656 68.964844 123.6875 67.574219 C 122.800781 67.007812 122.53125 65.933594 123.097656 65.050781 C 123.597656 64.191406 124.816406 63.871094 125.628906 64.460938 C 127.792969 65.851562 129.933594 67.40625 131.980469 68.910156 C 132.398438 69.238281 132.722656 69.523438 132.8125 70.035156 C 132.972656 70.527344 132.828125 71.039062 132.566406 71.433594 C 132.304688 71.828125 132 72.082031 131.578125 72.222656 C 131.507812 72.242188 131.4375 72.265625 131.4375 72.265625 Z M 131.4375 72.265625"/></g></g></g><g clip-path="url(#p)"><g clip-path="url(#q)"><g clip-path="url(#r)"><path fill="#FF6767" d="M 124.703125 66.390625 C 124.210938 66.550781 123.695312 66.40625 123.300781 66.148438 C 122.90625 65.890625 122.605469 65.445312 122.46875 65.023438 C 122.332031 64.601562 122.359375 63.972656 122.714844 63.625 C 123.164062 63.089844 123.613281 62.558594 124.0625 62.023438 C 124.390625 61.605469 124.722656 61.1875 125.078125 60.839844 C 125.832031 60.050781 126.660156 59.242188 127.414062 58.453125 C 128.167969 57.664062 128.96875 57.015625 129.75 56.296875 C 130.289062 55.8125 130.878906 55.230469 131.421875 54.746094 C 134.582031 51.78125 137.816406 48.789062 140.953125 45.753906 C 142.554688 44.226562 144.160156 42.695312 145.765625 41.167969 C 147.507812 39.589844 149.277344 38.085938 151.066406 36.652344 C 151.445312 36.375 151.84375 36.167969 152.382812 36.144531 C 152.851562 36.148438 153.386719 36.363281 153.664062 36.738281 C 154.359375 37.441406 154.371094 38.679688 153.570312 39.328125 C 151.96875 40.625 150.390625 41.988281 148.8125 43.355469 C 147.230469 44.722656 145.699219 46.230469 144.164062 47.734375 C 141.449219 50.402344 138.644531 53.019531 135.835938 55.636719 C 133.972656 57.328125 132.203125 59.066406 130.34375 60.757812 C 129.5625 61.476562 128.738281 62.289062 127.980469 63.074219 C 127.273438 63.769531 126.730469 64.492188 126.117188 65.234375 C 125.996094 65.347656 125.949219 65.441406 125.832031 65.558594 C 125.570312 65.953125 125.265625 66.207031 124.84375 66.34375 C 124.773438 66.367188 124.773438 66.367188 124.703125 66.390625 Z M 124.703125 66.390625"/></g></g></g><g clip-path="url(#s)"><g clip-path="url(#t)"><g clip-path="url(#u)"><path fill="#FF6767" d="M 124.953125 66.929688 C 120.535156 66.738281 116.066406 66.636719 111.574219 66.46875 C 110.546875 66.414062 109.515625 66.363281 108.582031 66.355469 C 107.550781 66.304688 106.453125 66.273438 105.425781 66.21875 C 103.410156 66.253906 101.398438 66.285156 99.433594 66.226562 C 99.128906 66.25 98.894531 66.246094 98.570312 66.199219 C 98.265625 66.21875 97.9375 66.171875 97.679688 66.097656 C 97.425781 66.027344 97.050781 65.839844 96.84375 65.675781 C 96.445312 65.414062 96.097656 65.0625 96.007812 64.550781 C 95.871094 64.128906 95.996094 63.546875 96.253906 63.152344 C 96.613281 62.570312 96.988281 62.058594 97.460938 61.59375 C 97.933594 61.132812 98.5 60.714844 99.085938 60.371094 C 100.289062 59.515625 101.464844 58.820312 102.710938 58.105469 C 103.886719 57.414062 105.011719 56.816406 106.210938 56.191406 C 107.929688 55.246094 109.714844 54.277344 111.453125 53.402344 C 113.191406 52.527344 114.980469 51.558594 116.71875 50.683594 C 118.667969 49.742188 120.617188 48.796875 122.496094 47.875 C 126.46875 45.964844 130.414062 43.984375 134.386719 42.074219 C 137.816406 40.414062 141.246094 38.757812 144.632812 36.960938 C 145.757812 36.359375 146.886719 35.761719 148.015625 35.160156 C 149.003906 34.609375 150.011719 34.125 150.976562 33.5 C 151.800781 32.921875 153.039062 33.375 153.476562 34.242188 C 153.683594 34.636719 153.769531 35.152344 153.605469 35.59375 C 153.457031 36.105469 153.105469 36.453125 152.726562 36.730469 C 151.832031 37.332031 150.894531 37.792969 149.90625 38.347656 C 149.109375 38.761719 148.308594 39.175781 147.578125 39.566406 C 145.722656 40.558594 143.867188 41.550781 141.988281 42.472656 C 140.316406 43.324219 138.554688 44.128906 136.886719 44.980469 C 134.867188 45.949219 132.871094 46.984375 130.847656 47.953125 C 127.089844 49.792969 123.332031 51.636719 119.546875 53.410156 C 116.046875 55.089844 112.664062 56.886719 109.207031 58.707031 C 106.882812 59.929688 104.554688 61.152344 102.367188 62.558594 C 103.140625 62.542969 103.910156 62.523438 104.636719 62.597656 C 106.578125 62.585938 108.472656 62.667969 110.390625 62.820312 C 114.578125 63.011719 118.71875 63.0625 122.902344 63.253906 C 123.605469 63.257812 124.332031 63.332031 124.960938 63.359375 C 125.992188 63.414062 126.800781 64.234375 126.816406 65.238281 C 126.835938 66.007812 126.289062 66.726562 125.515625 66.980469 C 125.398438 66.863281 125.1875 66.929688 124.953125 66.929688 Z M 124.953125 66.929688"/></g></g></g><g clip-path="url(#v)"><g clip-path="url(#w)"><g clip-path="url(#x)"><path fill="#FF6767" d="M 120.425781 79.566406 C 120.074219 79.449219 119.75 79.167969 119.636719 78.816406 C 119.613281 78.746094 119.589844 78.675781 119.566406 78.605469 C 119.40625 78.347656 119.292969 77.996094 119.339844 77.671875 C 119.253906 76.691406 119.453125 75.617188 119.695312 74.6875 C 119.914062 73.683594 120.0625 72.707031 120.28125 71.703125 C 120.695312 69.863281 121.109375 68.023438 121.59375 66.160156 C 121.8125 65.160156 122.867188 64.582031 123.894531 64.867188 C 124.921875 65.15625 125.40625 66.160156 125.1875 67.164062 C 124.582031 69.609375 123.976562 72.054688 123.53125 74.527344 C 124.167969 74.085938 124.804688 73.648438 125.367188 73.230469 C 126.191406 72.652344 127.109375 72.121094 127.957031 71.613281 C 128.871094 71.082031 129.859375 70.53125 130.871094 70.046875 C 131.738281 69.609375 132.90625 69.851562 133.367188 70.785156 C 133.875 71.628906 133.5625 72.816406 132.621094 73.277344 C 132.082031 73.53125 131.492188 73.875 130.953125 74.128906 C 130.554688 74.335938 130.222656 74.523438 129.824219 74.730469 C 128.976562 75.238281 128.132812 75.746094 127.308594 76.324219 C 125.777344 77.363281 124.175781 78.425781 122.648438 79.464844 C 122.53125 79.582031 122.390625 79.628906 122.25 79.671875 C 121.613281 79.878906 120.960938 79.78125 120.425781 79.566406 Z M 120.425781 79.566406"/></g></g></g><g clip-path="url(#y)"><g clip-path="url(#z)"><g clip-path="url(#A)"><path fill="#FF6767" d="M 22.917969 173.683594 C 22.414062 172.609375 22 171.578125 21.496094 170.5 C 20.761719 168.722656 20.027344 166.945312 19.503906 165.101562 C 20.792969 164.992188 22.011719 164.90625 23.320312 164.867188 C 23.800781 166.339844 24.441406 167.839844 25.0625 169.265625 C 25.449219 170.222656 25.863281 171.253906 26.324219 172.191406 C 26.710938 173.148438 26.234375 174.3125 25.34375 174.679688 C 25.273438 174.703125 25.203125 174.726562 25.132812 174.75 C 24.285156 175.023438 23.285156 174.574219 22.917969 173.683594 Z M 22.917969 173.683594"/></g></g></g><g clip-path="url(#B)"><g clip-path="url(#C)"><g clip-path="url(#D)"><path fill="#FF6767" d="M 18.988281 162.554688 C 18.902344 161.574219 18.867188 160.5 18.851562 159.496094 C 18.816406 157.957031 18.832031 156.324219 18.890625 154.832031 C 18.949219 153.335938 19.105469 151.890625 19.328125 150.421875 C 19.5625 150.425781 19.722656 150.449219 19.933594 150.382812 C 20.472656 150.359375 21.011719 150.339844 21.550781 150.320312 C 22.019531 150.324219 22.464844 150.257812 22.839844 150.214844 C 22.910156 150.191406 23 150.238281 23.140625 150.191406 C 22.996094 150.9375 22.917969 151.660156 22.773438 152.40625 C 22.476562 154.363281 22.410156 156.324219 22.441406 158.328125 C 22.464844 158.167969 22.421875 158.027344 22.445312 157.863281 C 22.480469 159.402344 22.488281 160.871094 22.734375 162.34375 C 21.421875 162.382812 20.207031 162.46875 18.988281 162.554688 Z M 18.988281 162.554688"/></g></g></g><g clip-path="url(#E)"><g clip-path="url(#F)"><g clip-path="url(#G)"><path fill="#FF6767" d="M 23.492188 147.675781 C 22.8125 147.738281 22.0625 147.828125 21.359375 147.824219 C 20.894531 147.820312 20.355469 147.839844 19.886719 147.835938 C 19.984375 147.417969 20.128906 146.90625 20.226562 146.488281 C 20.90625 143.785156 21.816406 141.085938 23.03125 138.59375 C 23.578125 137.410156 24.222656 136.269531 24.957031 135.179688 C 25.515625 135.460938 26.097656 135.816406 26.65625 136.097656 C 27.144531 136.40625 27.703125 136.6875 28.121094 137.019531 C 27.8125 137.507812 27.503906 137.996094 27.195312 138.484375 C 25.746094 141.203125 24.667969 144.113281 23.824219 147.023438 C 23.800781 147.1875 23.703125 147.371094 23.703125 147.605469 C 23.632812 147.628906 23.5625 147.652344 23.492188 147.675781 Z M 23.492188 147.675781"/></g></g></g><g clip-path="url(#H)"><g clip-path="url(#I)"><g clip-path="url(#J)"><path fill="#FF6767" d="M 76.476562 127.042969 C 75.164062 127.3125 73.851562 127.585938 72.515625 127.785156 C 71.179688 127.988281 69.777344 127.980469 68.371094 127.96875 C 68.59375 126.734375 68.742188 125.523438 68.964844 124.289062 C 69.199219 124.289062 69.433594 124.289062 69.667969 124.292969 C 71.210938 124.253906 72.78125 124.054688 74.304688 123.714844 C 75.851562 123.445312 77.445312 123.082031 78.945312 122.671875 C 78.945312 122.671875 79.015625 122.648438 79.015625 122.648438 C 79.015625 122.648438 79.085938 122.625 79.085938 122.625 C 79.789062 122.398438 80.496094 122.167969 81.269531 121.917969 C 81.316406 122.058594 81.359375 122.199219 81.40625 122.335938 C 81.566406 122.828125 81.726562 123.320312 81.90625 123.878906 C 82.066406 124.371094 82.179688 124.957031 82.339844 125.445312 C 82.339844 125.445312 82.339844 125.445312 82.269531 125.46875 C 80.460938 126.132812 78.445312 126.636719 76.476562 127.042969 Z M 79.296875 122.558594 C 79.226562 122.582031 79.15625 122.601562 79.085938 122.625 C 79.226562 122.582031 79.226562 122.582031 79.296875 122.558594 Z M 79.296875 122.558594"/></g></g></g><g clip-path="url(#K)"><g clip-path="url(#L)"><g clip-path="url(#M)"><path fill="#FF6767" d="M 84.621094 123.851562 C 84.417969 122.988281 84.144531 122.144531 83.824219 121.398438 C 83.800781 121.328125 83.753906 121.1875 83.734375 121.117188 C 84.625 120.75 85.515625 120.382812 86.410156 120.015625 C 88.875 118.980469 91.34375 117.710938 93.625 116.351562 C 93.882812 116.1875 94.210938 116.003906 94.46875 115.84375 C 94.585938 115.960938 94.632812 116.101562 94.769531 116.289062 C 95.164062 116.78125 95.582031 117.34375 95.972656 117.835938 C 96.230469 118.140625 96.484375 118.445312 96.667969 118.773438 C 92.996094 121.128906 89.027344 123.039062 84.941406 124.601562 C 84.871094 124.625 84.800781 124.644531 84.730469 124.667969 C 84.710938 124.367188 84.691406 124.0625 84.621094 123.851562 Z M 84.621094 123.851562"/></g></g></g><g clip-path="url(#N)"><g clip-path="url(#O)"><g clip-path="url(#P)"><path fill="#FF6767" d="M 98.371094 116.589844 C 97.816406 115.839844 97.191406 115.113281 96.613281 114.292969 C 99.0625 112.488281 101.371094 110.5 103.472656 108.34375 C 104.109375 107.667969 104.675781 107.019531 105.242188 106.371094 C 105.640625 106.628906 105.964844 106.910156 106.359375 107.171875 C 106.988281 107.664062 107.59375 108.089844 108.21875 108.582031 C 107.769531 109.117188 107.25 109.671875 106.777344 110.136719 C 104.75 112.269531 102.578125 114.214844 100.292969 116.042969 C 99.800781 116.4375 99.351562 116.738281 98.859375 117.132812 C 98.671875 117.035156 98.53125 116.847656 98.371094 116.589844 Z M 98.371094 116.589844"/></g></g></g><g clip-path="url(#Q)"><g clip-path="url(#R)"><g clip-path="url(#S)"><path fill="#FF6767" d="M 107.898438 105.199219 C 107.574219 104.914062 107.269531 104.703125 106.875 104.445312 C 107.15625 104.121094 107.417969 103.726562 107.703125 103.398438 C 109.003906 101.660156 110.191406 99.800781 111.261719 97.824219 C 112.1875 96.125 113.042969 94.453125 113.855469 92.636719 C 113.949219 92.683594 114.039062 92.730469 114.132812 92.777344 C 114.808594 93.179688 115.484375 93.582031 116.207031 93.890625 C 116.558594 94.007812 116.859375 94.21875 117.140625 94.363281 C 116.875 94.988281 116.519531 95.570312 116.257812 96.199219 C 115.660156 97.480469 114.972656 98.710938 114.210938 99.964844 C 113.523438 101.199219 112.765625 102.453125 111.910156 103.660156 C 111.222656 104.660156 110.46875 105.679688 109.6875 106.632812 C 109.246094 106.234375 108.59375 105.667969 107.898438 105.199219 Z M 107.898438 105.199219"/></g></g></g><g clip-path="url(#T)"><g clip-path="url(#U)"><g clip-path="url(#V)"><path fill="#FF6767" d="M 116.789062 91.375 C 116.207031 91.019531 115.648438 90.734375 115.066406 90.382812 C 115.617188 89.195312 116.09375 88.03125 116.640625 86.847656 C 117.046875 85.9375 118.128906 85.433594 119.035156 85.835938 C 119.945312 86.238281 120.453125 87.3125 120.046875 88.222656 C 119.449219 89.5 118.945312 90.828125 118.351562 92.105469 C 117.792969 91.824219 117.257812 91.609375 116.789062 91.375 Z M 116.789062 91.375"/></g></g></g><g clip-path="url(#W)"><g clip-path="url(#X)"><g clip-path="url(#Y)"><path fill="#FF6767" d="M 60.457031 125.890625 C 59.316406 125.25 58.34375 124.40625 57.414062 123.464844 C 56.488281 122.527344 55.769531 121.519531 55.125 120.488281 C 54.628906 120.648438 54.066406 120.832031 53.574219 120.992188 C 53.421875 119.800781 53.246094 118.539062 52.859375 117.347656 C 53.140625 117.257812 53.421875 117.164062 53.632812 117.097656 C 53.539062 116.816406 53.472656 116.605469 53.382812 116.324219 C 53.265625 115.972656 53.246094 115.671875 53.132812 115.320312 C 53.203125 115.296875 53.34375 115.25 53.414062 115.226562 C 54.28125 115.023438 55.078125 114.84375 55.921875 114.566406 C 56.203125 114.476562 56.414062 114.40625 56.695312 114.316406 C 56.742188 114.691406 56.878906 115.109375 56.945312 115.554688 C 56.964844 115.625 57.011719 115.765625 57.035156 115.835938 C 58.863281 115.238281 60.742188 114.550781 62.527344 113.816406 C 63.417969 113.449219 64.21875 113.035156 65.109375 112.667969 C 65.316406 113.296875 65.519531 113.929688 65.726562 114.5625 C 65.863281 114.980469 66.070312 115.378906 66.207031 115.800781 C 66.253906 115.941406 66.273438 116.011719 66.320312 116.152344 C 65.3125 116.632812 64.371094 117.09375 63.335938 117.507812 C 62.09375 117.992188 60.917969 118.449219 59.652344 118.859375 C 59.300781 118.976562 58.949219 119.089844 58.527344 119.226562 C 58.964844 119.859375 59.476562 120.46875 60.054688 121.058594 C 60.75 121.761719 61.566406 122.351562 62.355469 122.867188 C 63.101562 123.246094 63.894531 123.53125 64.664062 123.746094 C 65.179688 123.890625 65.738281 123.941406 66.324219 124.058594 C 66.101562 125.296875 65.953125 126.507812 65.730469 127.742188 C 64 127.453125 62.109375 126.902344 60.457031 125.890625 Z M 60.457031 125.890625"/></g></g></g><g clip-path="url(#Z)"><g clip-path="url(#aa)"><g clip-path="url(#ab)"><path fill="#FF6767" d="M 55.148438 112.183594 C 54.351562 112.363281 53.554688 112.546875 52.757812 112.726562 C 52.78125 112.5625 52.714844 112.355469 52.738281 112.191406 C 52.679688 110.8125 52.785156 109.460938 52.960938 108.085938 C 53.207031 106.6875 53.617188 105.3125 54.140625 104.058594 C 54.617188 102.894531 55.214844 101.847656 55.878906 100.777344 C 56.433594 101.296875 56.96875 101.742188 57.527344 102.257812 C 57.875 102.613281 58.246094 103.035156 58.664062 103.363281 C 58.664062 103.363281 58.59375 103.386719 58.613281 103.457031 C 57.878906 104.78125 57.304688 106.128906 56.847656 107.597656 C 56.558594 108.855469 56.429688 110.136719 56.394531 111.46875 C 56.417969 111.539062 56.390625 111.699219 56.414062 111.769531 C 56.015625 111.976562 55.570312 112.046875 55.148438 112.183594 Z M 55.148438 112.183594"/></g></g></g><g clip-path="url(#ac)"><g clip-path="url(#ad)"><g clip-path="url(#ae)"><path fill="#FF6767" d="M 59.132812 100.261719 C 58.578125 99.746094 58.019531 99.230469 57.390625 98.734375 C 57.792969 98.292969 58.195312 97.855469 58.597656 97.414062 C 60.578125 95.375 62.816406 93.636719 65.308594 92.207031 C 65.828125 91.882812 66.367188 91.632812 67 91.425781 C 66.996094 92.125 67.011719 92.894531 67.003906 93.59375 C 67.023438 94.132812 67.042969 94.667969 67.132812 95.183594 C 67.15625 95.253906 67.179688 95.324219 67.128906 95.414062 C 66.800781 95.601562 66.472656 95.785156 66.214844 95.945312 C 64.472656 97.054688 62.871094 98.351562 61.40625 99.835938 C 60.933594 100.296875 60.554688 100.808594 60.105469 101.34375 C 59.808594 100.898438 59.460938 100.546875 59.132812 100.261719 Z M 59.132812 100.261719"/></g></g></g><g clip-path="url(#af)"><g clip-path="url(#ag)"><g clip-path="url(#ah)"><path fill="#FF6767" d="M 76.457031 99.207031 C 76.390625 98.765625 76.324219 98.320312 76.257812 97.878906 C 76.074219 97.316406 75.824219 96.777344 75.570312 96.238281 C 75.292969 95.863281 75.015625 95.488281 74.761719 95.183594 C 74.527344 94.949219 74.25 94.808594 73.945312 94.597656 C 73.480469 94.359375 73.035156 94.195312 72.523438 94.050781 C 72.195312 94 71.871094 93.953125 71.542969 93.902344 C 71.167969 93.949219 70.792969 93.992188 70.441406 94.105469 C 70.371094 94.128906 70.230469 94.175781 70.160156 94.199219 C 70.019531 94.246094 69.878906 94.289062 69.738281 94.335938 C 69.691406 94.195312 69.714844 94.03125 69.671875 93.890625 C 69.625 93.519531 69.652344 93.121094 69.609375 92.75 C 69.566406 92.375 69.59375 91.976562 69.550781 91.605469 C 69.578125 91.207031 69.554688 90.90625 69.582031 90.507812 C 70.003906 90.371094 70.519531 90.28125 70.964844 90.214844 C 71.714844 90.125 72.441406 90.199219 73.210938 90.414062 C 74.46875 90.703125 75.660156 91.246094 76.777344 92.046875 C 77.890625 92.847656 78.675781 94.066406 79.203125 95.214844 C 79.78125 96.265625 80.027344 97.503906 80.179688 98.695312 C 78.847656 98.898438 77.652344 99.054688 76.457031 99.207031 Z M 76.457031 99.207031"/></g></g></g><g clip-path="url(#ai)"><g clip-path="url(#aj)"><g clip-path="url(#ak)"><path fill="#FF6767" d="M 68.671875 114.765625 C 68.535156 114.34375 68.328125 113.949219 68.191406 113.527344 C 67.964844 112.824219 67.757812 112.195312 67.53125 111.492188 C 68.070312 111.238281 68.519531 110.9375 68.988281 110.710938 C 69.765625 110.222656 70.539062 109.738281 71.199219 109.136719 C 71.8125 108.628906 72.425781 108.117188 72.945312 107.5625 C 73.820312 106.65625 74.648438 105.613281 75.3125 104.542969 C 75.644531 103.894531 75.90625 103.265625 76.148438 102.566406 C 76.21875 102.308594 76.222656 102.078125 76.292969 101.820312 C 77.558594 101.640625 78.824219 101.464844 80.113281 101.355469 C 80.132812 101.425781 80.085938 101.519531 80.085938 101.519531 C 79.984375 102.636719 79.644531 103.753906 79.285156 104.804688 C 78.925781 105.851562 78.238281 106.847656 77.601562 107.753906 C 76.960938 108.660156 76.277344 109.425781 75.519531 110.214844 C 74.695312 111.027344 73.914062 111.742188 72.972656 112.4375 C 71.65625 113.410156 70.222656 114.261719 68.761719 115.046875 C 68.71875 114.90625 68.695312 114.835938 68.671875 114.765625 Z M 68.671875 114.765625"/></g></g></g><g clip-path="url(#al)"><g clip-path="url(#am)"><g clip-path="url(#an)"><path fill="#FF6767" d="M 41.597656 123.644531 C 41.320312 123.035156 40.996094 122.519531 40.652344 121.933594 C 40.792969 121.890625 40.980469 121.75 41.121094 121.703125 C 43.351562 120.667969 45.609375 119.703125 48 118.925781 C 48.773438 118.675781 49.550781 118.421875 50.324219 118.171875 C 50.367188 118.3125 50.390625 118.382812 50.4375 118.523438 C 50.710938 119.597656 50.910156 120.695312 51.039062 121.816406 C 49.070312 122.457031 47.121094 123.167969 45.195312 123.945312 C 44.304688 124.316406 43.363281 124.773438 42.472656 125.144531 C 42.171875 124.699219 41.917969 124.160156 41.597656 123.644531 Z M 41.597656 123.644531"/></g></g></g><g clip-path="url(#ao)"><g clip-path="url(#ap)"><g clip-path="url(#aq)"><path fill="#FF6767" d="M 28.519531 134.175781 C 27.84375 133.773438 27.171875 133.371094 26.425781 132.996094 C 26.804688 132.484375 27.136719 132.066406 27.535156 131.625 C 30.515625 128.097656 34.351562 125.300781 38.371094 123.0625 C 38.625 123.601562 38.949219 124.117188 39.199219 124.65625 C 39.453125 125.191406 39.800781 125.777344 40.050781 126.316406 C 39.511719 126.570312 38.996094 126.894531 38.546875 127.195312 C 36.078125 128.695312 33.699219 130.476562 31.648438 132.539062 C 30.960938 133.304688 30.277344 134.070312 29.613281 134.90625 C 29.289062 134.625 28.917969 134.433594 28.519531 134.175781 Z M 28.519531 134.175781"/></g></g></g><g clip-path="url(#ar)"><g clip-path="url(#as)"><g clip-path="url(#at)"><path fill="#FF6767" d="M 152.179688 40.789062 C 151.171875 40.804688 150.289062 40.003906 150.277344 39.003906 C 150.328125 38.441406 150.285156 37.835938 150.265625 37.300781 C 150.292969 37.136719 150.269531 37.066406 150.292969 36.902344 C 150.226562 36.460938 150.183594 36.085938 150.1875 35.617188 C 150.195312 34.917969 150.550781 34.339844 151.066406 34.015625 C 151.136719 33.992188 151.136719 33.992188 151.207031 33.96875 C 151.324219 33.851562 151.535156 33.785156 151.675781 33.738281 C 151.820312 33.691406 151.960938 33.648438 152.121094 33.671875 C 152.964844 33.628906 153.828125 34.125 154.03125 34.992188 C 154.234375 35.621094 154.230469 36.320312 154.199219 36.953125 C 154.222656 37.019531 154.175781 37.113281 154.199219 37.183594 C 154.171875 37.582031 154.238281 38.023438 154.140625 38.445312 C 154.164062 38.515625 154.09375 38.535156 154.117188 38.605469 C 154.066406 38.699219 154.042969 38.863281 154.066406 38.933594 C 154.089844 39.003906 154.042969 39.097656 154.042969 39.097656 C 153.964844 39.820312 153.46875 40.445312 152.765625 40.675781 C 152.554688 40.742188 152.320312 40.742188 152.179688 40.789062 Z M 152.179688 40.789062"/></g></g></g><g fill="#FF865E"><use x="21.317" y="85.807" xmlns:xlink="http://www.w3.org/1999/xlink" xlink:href="#au" xlink:type="simple" xlink:actuate="onLoad" xlink:show="embed"/></g><g fill="#FF865E"><use x="61.096" y="85.807" xmlns:xlink="http://www.w3.org/1999/xlink" xlink:href="#av" xlink:type="simple" xlink:actuate="onLoad" xlink:show="embed"/></g><g fill="#FF865E"><use x="156.203" y="85.807" xmlns:xlink="http://www.w3.org/1999/xlink" xlink:href="#aw" xlink:type="simple" xlink:actuate="onLoad" xlink:show="embed"/></g><g fill="#FF865E"><use x="202.298" y="85.807" xmlns:xlink="http://www.w3.org/1999/xlink" xlink:href="#ax" xlink:type="simple" xlink:actuate="onLoad" xlink:show="embed"/></g><g fill="#FF865E"><use x="235.689" y="85.807" xmlns:xlink="http://www.w3.org/1999/xlink" xlink:href="#ay" xlink:type="simple" xlink:actuate="onLoad" xlink:show="embed"/></g><g fill="#FF865E"><use x="267.265" y="85.807" xmlns:xlink="http://www.w3.org/1999/xlink" xlink:href="#az" xlink:type="simple" xlink:actuate="onLoad" xlink:show="embed"/></g><g fill="#FF865E"><use x="309.076" y="85.807" xmlns:xlink="http://www.w3.org/1999/xlink" xlink:href="#aA" xlink:type="simple" xlink:actuate="onLoad" xlink:show="embed"/></g></svg>