<?xml version="1.0" encoding="UTF-8"?><svg xmlns="http://www.w3.org/2000/svg" xmlns:xlink="http://www.w3.org/1999/xlink" contentScriptType="text/ecmascript" width="375" zoomAndPan="magnify" contentStyleType="text/css" viewBox="0 0 375 374.999991" height="374.999991" preserveAspectRatio="xMidYMid meet" version="1.0"><defs><clipPath id="clip-0"><path d="M 138.65625 112.5 L 236.15625 112.5 L 236.15625 262.5 L 138.65625 262.5 Z M 138.65625 112.5 " clip-rule="nonzero"/></clipPath></defs><g clip-path="url(#clip-0)"><path fill="rgb(84.709167%, 22.749329%, 33.729553%)" d="M 236.15625 161.46875 C 236.15625 134.484375 214.332031 112.617188 187.410156 112.617188 C 160.488281 112.617188 138.65625 134.484375 138.65625 161.46875 C 138.65625 161.945312 138.71875 162.421875 138.726562 162.898438 C 138.726562 162.910156 138.691406 162.910156 138.691406 162.910156 C 138.691406 164 138.769531 165.136719 138.898438 166.316406 C 138.921875 166.535156 138.957031 166.738281 138.96875 166.953125 C 139.09375 167.953125 139.25 168.988281 139.449219 170.042969 C 139.574219 170.789062 139.707031 171.519531 139.878906 172.238281 C 147.324219 205.347656 187.398438 262.390625 187.398438 262.390625 C 187.398438 262.390625 223.382812 210.167969 233.511719 177.234375 C 234.3125 174.851562 234.941406 172.394531 235.378906 169.867188 C 235.855469 167.359375 236.152344 165.023438 236.152344 162.910156 C 236.152344 162.753906 236.097656 162.613281 236.097656 162.460938 C 236.101562 162.125 236.15625 161.804688 236.15625 161.46875 Z M 187.410156 186.960938 C 173.144531 186.960938 161.589844 175.382812 161.589844 161.105469 C 161.589844 146.824219 173.140625 135.246094 187.410156 135.246094 C 201.65625 135.246094 213.21875 146.820312 213.21875 161.105469 C 213.21875 175.378906 201.65625 186.960938 187.410156 186.960938 Z M 187.410156 186.960938 " fill-opacity="1" fill-rule="nonzero"/></g></svg>